<?xml version="1.0" standalone="no"?>
<!DOCTYPE svg PUBLIC "-//W3C//DTD SVG 20010904//EN"
 "http://www.w3.org/TR/2001/REC-SVG-20010904/DTD/svg10.dtd">
<svg version="1.0" xmlns="http://www.w3.org/2000/svg"
 width="700.000000pt" height="700.000000pt" viewBox="0 0 700.000000 700.000000"
 preserveAspectRatio="xMidYMid meet">
<metadata>
Created by potrace 1.14, written by Peter Selinger 2001-2017
</metadata>
<g transform="translate(0.000000,700.000000) scale(0.100000,-0.100000)"
fill="#000000" stroke="none">
<path d="M588 6411 c0 -3 -2 -1316 -3 -2917 l-1 -2910 2913 0 c2649 -1 2913 1
2917 15 2 9 3 1321 2 2916 l-1 2900 -2912 1 c-1602 0 -2914 -2 -2915 -5z
m3482 -2915 l0 -1453 -288 0 -287 -1 0 1109 c0 610 -2 1109 -4 1109 -4 0 -267
-80 -481 -147 -63 -20 -115 -35 -115 -33 0 2 -9 -1 -20 -7 -11 -6 -31 -13 -45
-16 l-25 -6 0 230 c1 189 4 232 15 239 8 5 48 21 90 35 41 15 138 49 215 76
77 28 178 64 225 81 47 16 94 34 105 39 11 5 29 11 40 14 17 4 161 55 460 165
28 10 65 19 83 19 l32 1 0 -1454z"/>
</g>
</svg>
